<?xml version="1.0" encoding="UTF-8" standalone="no"?>
<svg
   xmlns:dc="http://purl.org/dc/elements/1.1/"
   xmlns:cc="http://creativecommons.org/ns#"
   xmlns:rdf="http://www.w3.org/1999/02/22-rdf-syntax-ns#"
   xmlns:svg="http://www.w3.org/2000/svg"
   xmlns="http://www.w3.org/2000/svg"
   xmlns:sodipodi="http://sodipodi.sourceforge.net/DTD/sodipodi-0.dtd"
   xmlns:inkscape="http://www.inkscape.org/namespaces/inkscape"
   width="98.950439mm"
   height="98.696648mm"
   viewBox="0 0 98.950439 98.696648"
   version="1.1"
   id="svg8"
   inkscape:version="1.0.1 (3bc2e813f5, 2020-09-07)"
   sodipodi:docname="icon.svg">
  <defs
     id="defs2" />
  <sodipodi:namedview
     id="base"
     pagecolor="#ffffff"
     bordercolor="#666666"
     borderopacity="1.0"
     inkscape:pageopacity="0.0"
     inkscape:pageshadow="2"
     inkscape:zoom="0.7"
     inkscape:cx="76.983623"
     inkscape:cy="346.24982"
     inkscape:document-units="mm"
     inkscape:current-layer="layer1"
     inkscape:document-rotation="0"
     showgrid="false"
     fit-margin-top="0"
     fit-margin-left="0"
     fit-margin-right="0"
     fit-margin-bottom="0"
     inkscape:window-width="1920"
     inkscape:window-height="1017"
     inkscape:window-x="-8"
     inkscape:window-y="-8"
     inkscape:window-maximized="1" />
  <metadata
     id="metadata5">
    <rdf:RDF>
      <cc:Work
         rdf:about="">
        <dc:format>image/svg+xml</dc:format>
        <dc:type
           rdf:resource="http://purl.org/dc/dcmitype/StillImage" />
        <dc:title></dc:title>
      </cc:Work>
    </rdf:RDF>
  </metadata>
  <g
     inkscape:label="Réteg 1"
     inkscape:groupmode="layer"
     id="layer1"
     transform="translate(-82.6482,-51.788853)">
    <path
       style="fill:#000000;stroke-width:0.264583"
       d="m 83.057428,149.89602 c -0.370552,-0.52903 -0.41254,-5.51978 -0.40904,-48.6187 0.0031,-38.189437 0.07245,-48.164657 0.338514,-48.690607 l 0.334614,-0.66146 16.468313,-0.0682 16.468311,-0.0682 0.2588,0.68069 c 0.33653,0.88513 0.33718,11.25355 7.9e-4,12.13839 l -0.25806,0.67868 h -10.3253 -10.325299 v 20.6375 20.637497 h 10.583329 10.58334 v 4.63021 4.63021 h 15.08125 15.08125 v -4.1439 -4.1439 l -10.14431,0.16794 c -9.91803,0.16419 -10.15705,0.15607 -10.71562,-0.36433 -0.54715,-0.50974 -0.57128,-0.74732 -0.57033,-5.61518 7.9e-4,-4.604347 0.0505,-5.164067 0.52647,-5.944787 l 0.52549,-0.86187 16.73759,0.0681 16.73758,0.0681 v 16.668747 16.66876 h -27.91354 -27.91354 l -0.0719,-5.09323 -0.0719,-5.09323 h -4.227618 -4.227621 v 9.78751 9.78752 l 15.941149,0.0682 15.94114,0.0682 v 6.21771 6.21771 l -22.0105,0.0677 -22.010492,0.0677 z m 54.417162,-5.69733 0.0709,-6.28386 15.1474,-0.0683 15.1474,-0.0683 V 101.53246 65.286713 h -14.68438 -14.68437 l -1.5e-4,3.9026 -1.5e-4,3.90261 10.25275,-0.0782 c 5.63902,-0.043 10.52065,-0.011 10.84807,0.0712 l 0.59531,0.14938 v 6.21267 6.21267 h -21.69583 -21.69583 v 5.15937 5.15938 h -6.35 -6.35 v -11.19188 c 0,-8.35201 0.0806,-11.27244 0.3175,-11.50937 0.23624,-0.23625 2.9955,-0.31747 10.78177,-0.31736 l 10.46427,1.5e-4 -0.0854,-10.15811 -0.0854,-10.15811 0.6073,-0.42537 c 0.54821,-0.38398 3.21603,-0.42537 27.41566,-0.42537 h 26.80837 l 0.64943,0.64943 0.64943,0.64943 v 47.998217 47.99822 l -0.54837,0.69714 -0.54837,0.69714 h -21.54913 -21.54912 z"
       id="path847" />
  </g>
</svg>
